<svg xmlns="http://www.w3.org/2000/svg" viewBox="0 0 200 200"><path fill="url('#a')" d="M0 0h200v200H0z"/><defs><linearGradient id="a" gradientTransform="rotate(45 .5 .5)"><stop offset="0%" stop-color="#fff"/><stop offset="100%" stop-color="#fff"/></linearGradient></defs><path fill="#211e23" stroke="#211e23" stroke-width=".911798" d="M50.193 93.325v11.58H25.62v15.455h29.04v12.036H9.982V67.567h44.77v12.081H25.62v13.677zm10.85-25.758h20.515l14.452 45.089 14.452-45.089h20.561v64.829h-15.682V117.26l1.504-31.001-15.683 46.137H90.86L75.13 86.213l1.505 31.047v15.136H61.043zm113.337 47.596q0-3.42-2.417-5.334-2.462-1.915-8.525-3.966-6.11-2.052-9.984-3.967-12.583-6.2-12.583-17.005 0-5.38 3.1-9.482 3.146-4.15 8.89-6.429t12.902-2.28q7.02 0 12.537 2.463 5.562 2.507 8.617 7.112 3.1 4.604 3.1 10.531h-15.592q0-3.966-2.416-6.155-2.462-2.188-6.565-2.188-4.194 0-6.61 1.87-2.463 1.823-2.463 4.695 0 2.508 2.69 4.513t9.392 4.195q6.702 2.142 11.033 4.65 10.53 6.063 10.53 16.686 0 8.525-6.427 13.358-6.429 4.878-17.598 4.878-7.887 0-14.27-2.827-6.382-2.826-9.62-7.75-3.19-4.924-3.19-11.352h15.637q0 5.197 2.69 7.705 2.69 2.462 8.753 2.462 3.875 0 6.155-1.687 2.234-1.687 2.234-4.696Z"/></svg>